<svg width="232" height="307" viewBox="0 0 232 307" fill="none" xmlns="http://www.w3.org/2000/svg">
<path d="M201.773 189.721L171.855 172.998L116.002 205.236L116.002 239.847L201.773 189.721Z" fill="url(#paint0_linear_2012_1904)"/>
<path d="M115.997 239.846L116.121 205.256L60.1364 172.994L30.3591 189.975L115.997 239.846Z" fill="url(#paint1_linear_2012_1904)"/>
<path d="M231.663 73.6372L201.639 90.9713L115.867 41.4509L116.006 6.86271L231.663 73.6372Z" fill="#DA125A"/>
<path d="M0.337097 207.149L30.363 189.963L115.994 239.268L115.994 273.861L0.337097 207.149Z" fill="#DA125A"/>
<path d="M231.663 207.125L201.639 189.791L201.639 90.75L231.663 73.576L231.663 207.125Z" fill="#ED2C72"/>
<path d="M0.337097 73.6006L30.3607 90.9347L30.3607 189.976L0.337106 207.15L0.337097 73.6006Z" fill="#ED2C72"/>
<path d="M116.006 273.899L116.006 239.231L201.644 189.787L231.663 207.125L116.006 273.899Z" fill="#EA1B66"/>
<path d="M115.994 6.86279L115.994 41.5311L30.2219 91.0515L0.33703 73.6373L115.994 6.86279Z" fill="#DA125A"/>
<path d="M116 205.25L60.1413 173L60.1413 32.25L116 -4.88332e-06L171.859 32.25L171.859 173L116 205.25Z" fill="url(#paint2_linear_2012_1904)"/>
<path d="M80.1815 141.83H86.5615C86.5229 141.037 86.2329 140.37 85.6915 139.829C85.1695 139.288 84.3962 139.017 83.3715 139.017C82.4435 139.017 81.6895 139.307 81.1095 139.887C80.5295 140.467 80.2202 141.115 80.1815 141.83ZM86.9385 145.542L90.1575 146.499C89.7709 147.814 89.0072 148.896 87.8665 149.747C86.7452 150.598 85.3435 151.023 83.6615 151.023C81.6122 151.023 79.8722 150.337 78.4415 148.964C77.0109 147.572 76.2955 145.716 76.2955 143.396C76.2955 141.192 76.9915 139.394 78.3835 138.002C79.7755 136.591 81.4189 135.885 83.3135 135.885C85.5175 135.885 87.2382 136.542 88.4755 137.857C89.7322 139.172 90.3605 140.979 90.3605 143.28C90.3605 143.435 90.3509 143.609 90.3315 143.802C90.3315 143.995 90.3315 144.15 90.3315 144.266L90.3025 144.469H80.0945C80.1332 145.397 80.5005 146.17 81.1965 146.789C81.8925 147.408 82.7239 147.717 83.6905 147.717C85.3339 147.717 86.4165 146.992 86.9385 145.542ZM112.973 144.237L116.685 130.027H120.774L115.09 150.588H110.972L106.274 135.943L101.576 150.588H97.3998L91.6868 130.027H95.9208L99.6908 144.179L104.244 130.027H108.391L112.973 144.237ZM127.512 139.394H130.673C131.659 139.394 132.442 139.133 133.022 138.611C133.602 138.07 133.892 137.354 133.892 136.465C133.892 135.556 133.602 134.841 133.022 134.319C132.461 133.778 131.678 133.507 130.673 133.507H127.512V139.394ZM131.166 142.845H127.483V150.588H123.481V130.027H131.166C133.176 130.027 134.8 130.626 136.038 131.825C137.294 133.024 137.923 134.561 137.923 136.436C137.923 138.311 137.294 139.848 136.038 141.047C134.8 142.246 133.176 142.845 131.166 142.845ZM156.206 133.826H149.71V150.588H145.679V133.826H139.183V130.027H156.206V133.826Z" fill="white"/>
<path d="M116 273.861L167.359 303.513C169.359 304.668 171.859 303.225 171.859 300.915V241.736L116 273.861L60.1413 241.736L60.1413 300.915C60.1413 303.225 62.6413 304.668 64.6413 303.513L116 273.861Z" fill="url(#paint3_linear_2012_1904)"/>
<path fill-rule="evenodd" clip-rule="evenodd" d="M142.569 46.2461L144.198 46.2461C145.447 46.2461 146.072 47.7562 145.189 48.6395L127.588 66.2406C127.061 66.7674 126.207 66.7674 125.68 66.2406C125.153 65.7137 125.153 64.8595 125.68 64.3327L141.03 48.9825C133.075 49.3789 125.556 52.8361 120.07 58.6646C119.559 59.2071 118.705 59.2329 118.163 58.7222C117.62 58.2115 117.594 57.3577 118.105 56.8152C124.454 50.0704 133.306 46.2461 142.569 46.2461ZM104.25 72.5772C104.777 73.104 104.777 73.9582 104.25 74.485L93.359 85.376L94.9354 89.4385L98.9979 91.0149L109.889 80.1239C110.416 79.5971 111.27 79.5971 111.797 80.1239C112.324 80.6508 112.324 81.5049 111.797 82.0318L101.747 92.0816L104.462 93.1351C105.157 93.4046 105.501 94.1862 105.232 94.8808C104.962 95.5754 104.181 95.92 103.486 95.6505L94.183 92.0406L86.3727 99.851C85.8458 100.378 84.9917 100.378 84.4648 99.851C83.938 99.3241 83.938 98.47 84.4648 97.9431L92.3008 90.1072L88.7234 80.8879C88.4539 80.1933 88.7985 79.4117 89.4931 79.1422C90.1877 78.8726 90.9692 79.2172 91.2388 79.9118L92.2923 82.627L102.342 72.5772C102.869 72.0503 103.723 72.0503 104.25 72.5772Z" fill="url(#paint4_linear_2012_1904)"/>
<path fill-rule="evenodd" clip-rule="evenodd" d="M84.554 48.6395C83.6708 47.7562 84.2964 46.2461 85.5454 46.2461L87.1736 46.2461C96.4298 46.2461 105.276 50.0647 111.624 56.8002L138.328 83.5047C138.855 84.0315 138.855 84.8857 138.328 85.4125C137.802 85.9394 136.947 85.9394 136.421 85.4125L109.687 58.6794L109.673 58.6646C104.187 52.8361 96.6679 49.3789 88.7127 48.9825L130.782 91.0514C131.309 91.5783 131.309 92.4324 130.782 92.9593C130.255 93.4861 129.401 93.4861 128.874 92.9593L84.554 48.6395Z" fill="url(#paint5_linear_2012_1904)"/>
<path fill-rule="evenodd" clip-rule="evenodd" d="M140.25 79.1421C140.944 79.4117 141.289 80.1932 141.019 80.8879L136.893 91.5235L126.257 95.6505C125.562 95.92 124.781 95.5754 124.511 94.8808C124.242 94.1862 124.586 93.4046 125.281 93.1351L134.807 89.4385L138.504 79.9118C138.774 79.2172 139.555 78.8726 140.25 79.1421Z" fill="url(#paint6_linear_2012_1904)"/>
<path fill-rule="evenodd" clip-rule="evenodd" d="M145.278 99.851C144.751 100.378 143.897 100.378 143.37 99.851L135.087 91.5672C134.56 91.0404 134.56 90.1862 135.087 89.6593C135.613 89.1325 136.468 89.1325 136.994 89.6593L145.278 97.9431C145.805 98.47 145.805 99.3241 145.278 99.851Z" fill="url(#paint7_linear_2012_1904)"/>
<defs>
<linearGradient id="paint0_linear_2012_1904" x1="114.562" y1="215.361" x2="144.104" y2="243.512" gradientUnits="userSpaceOnUse">
<stop stop-color="#EF7D22"/>
<stop offset="0.23" stop-color="#EF741D"/>
<stop offset="0.62" stop-color="#EE5A10"/>
<stop offset="1" stop-color="#EE3B00"/>
</linearGradient>
<linearGradient id="paint1_linear_2012_1904" x1="30.0706" y1="191.361" x2="41.7608" y2="228.477" gradientUnits="userSpaceOnUse">
<stop stop-color="#EF7D22"/>
<stop offset="0.23" stop-color="#EF741D"/>
<stop offset="0.62" stop-color="#EE5A10"/>
<stop offset="1" stop-color="#EE3B00"/>
</linearGradient>
<linearGradient id="paint2_linear_2012_1904" x1="116" y1="297.802" x2="116" y2="0.000540351" gradientUnits="userSpaceOnUse">
<stop stop-color="#6819CB"/>
<stop offset="0.885417" stop-color="#AF239C"/>
<stop offset="1" stop-color="#ED2C72"/>
</linearGradient>
<linearGradient id="paint3_linear_2012_1904" x1="116.307" y1="241.711" x2="115.975" y2="306.287" gradientUnits="userSpaceOnUse">
<stop stop-color="#821DBA"/>
<stop offset="1" stop-color="#ED2C72"/>
</linearGradient>
<linearGradient id="paint4_linear_2012_1904" x1="86.1758" y1="35.639" x2="159.378" y2="41.9088" gradientUnits="userSpaceOnUse">
<stop offset="0.177476" stop-color="#BB85FF"/>
<stop offset="1" stop-color="#FF5E5E"/>
</linearGradient>
<linearGradient id="paint5_linear_2012_1904" x1="86.1758" y1="35.639" x2="159.378" y2="41.9088" gradientUnits="userSpaceOnUse">
<stop offset="0.177476" stop-color="#BB85FF"/>
<stop offset="1" stop-color="#FF5E5E"/>
</linearGradient>
<linearGradient id="paint6_linear_2012_1904" x1="86.1758" y1="35.639" x2="159.378" y2="41.9088" gradientUnits="userSpaceOnUse">
<stop offset="0.177476" stop-color="#BB85FF"/>
<stop offset="1" stop-color="#FF5E5E"/>
</linearGradient>
<linearGradient id="paint7_linear_2012_1904" x1="86.1758" y1="35.639" x2="159.378" y2="41.9088" gradientUnits="userSpaceOnUse">
<stop offset="0.177476" stop-color="#BB85FF"/>
<stop offset="1" stop-color="#FF5E5E"/>
</linearGradient>
</defs>
</svg>
